<?xml version="1.0" encoding="utf-8"?>
<!-- Generator: Adobe Illustrator 16.0.3, SVG Export Plug-In . SVG Version: 6.00 Build 0)  -->
<!DOCTYPE svg PUBLIC "-//W3C//DTD SVG 1.1//EN" "http://www.w3.org/Graphics/SVG/1.1/DTD/svg11.dtd">
<svg version="1.1" id="Layer_4" xmlns="http://www.w3.org/2000/svg" xmlns:xlink="http://www.w3.org/1999/xlink" x="0px" y="0px"
	 viewBox="0 0.1 556.9 83" enable-background="new 0 0.1 556.9 83" xml:space="preserve">
<g>
	<path fill="#F37920" stroke="#F37920" d="M68.1,72.9c-3.6,2.9-7.7,5.3-12.2,7c-4.6,1.7-9.2,2.5-13.8,2.5c-5.7,0-11-1.1-16-3.2
		s-9.3-5-13.1-8.7c-3.7-3.7-6.7-8-8.8-13c-2.2-5-3.3-10.3-3.3-16C0.9,36,2,30.7,4.2,25.8c2.2-4.9,5.1-9.3,8.9-13
		c3.8-3.7,8.1-6.6,13.2-8.7c5-2.1,10.3-3.2,16-3.2c5.4,0,10.7,1,15.7,3.2c5,2.1,9.3,5,13.1,8.7c3.7,3.7,6.7,7.9,8.9,12.8
		s3.3,10.1,3.3,15.7c0,5.6-1,10.8-3,15.4c-2,4.7-4.9,9.1-8.6,13.3l10.4,11.3h-6.8L68.1,72.9z M68,66.3c3.2-3.4,5.7-7.1,7.5-11
		c1.8-3.9,2.7-8.2,2.7-13c0-5-0.9-9.7-2.8-14.1c-1.9-4.4-4.4-8.3-7.6-11.6c-3.2-3.3-7-6-11.4-8s-9.1-2.9-14.2-2.9
		c-4.9,0-9.6,1-14,2.9c-4.4,1.9-8.2,4.5-11.5,7.8c-3.3,3.3-5.9,7.1-7.8,11.4C7,32.2,6,36.8,6,41.7c0,5,1,9.7,2.9,14
		c1.9,4.4,4.5,8.2,7.8,11.4c3.3,3.3,7.2,5.8,11.6,7.7c4.4,1.9,9.1,2.8,14.1,2.8c4,0,7.9-0.8,11.7-2.3c3.8-1.5,7.3-3.5,10.4-6
		L44.7,48.8h7.2L68,66.3z"/>
	<path fill="#F37920" stroke="#F37920" d="M127.8,13.6h3.6v35.6c0,1.5,0,2.9-0.1,4.2c-0.1,1.4-0.2,2.7-0.4,4
		c-0.2,1.3-0.6,2.5-1.1,3.8c-0.5,1.2-1.3,2.4-2.2,3.6c-1.9,2.2-4.3,3.9-7.1,5c-2.8,1.1-5.6,1.7-8.5,1.7s-5.7-0.6-8.5-1.7
		c-2.8-1.1-5.1-2.8-7.1-5c-1-1.2-1.7-2.4-2.2-3.6c-0.5-1.2-0.9-2.5-1.1-3.8c-0.2-1.3-0.4-2.6-0.4-4c-0.1-1.4-0.1-2.8-0.1-4.2V13.6
		h3.6v34.6c0,1.3,0,2.6,0,3.9c0,1.3,0.1,2.6,0.3,3.8s0.5,2.4,0.9,3.6c0.4,1.1,0.9,2.2,1.7,3.1c0.7,0.9,1.6,1.7,2.6,2.4
		c1,0.7,2.1,1.3,3.2,1.7c1.1,0.5,2.3,0.8,3.5,1.1c1.2,0.2,2.4,0.3,3.5,0.3s2.3-0.1,3.5-0.3c1.2-0.2,2.4-0.6,3.5-1.1s2.2-1.1,3.2-1.7
		c1-0.7,1.9-1.5,2.6-2.4c0.8-1,1.3-2,1.7-3.1c0.4-1.1,0.7-2.3,0.9-3.6c0.2-1.2,0.3-2.5,0.3-3.8c0-1.3,0-2.6,0-3.9V13.6H127.8z"/>
	<path fill="#F37920" stroke="#F37920" d="M148.8,52l-7.7,18.8h-3.7l24-59.1l23.9,59.1h-3.7L173.9,52H148.8z M161.4,21l-11.2,27.6
		h22.4L161.4,21z"/>
	<path fill="#F37920" stroke="#F37920" d="M243.5,72.7l-48-51v49.1h-3.6V12.9l48,50.7v-50h3.6V72.7z"/>
	<path fill="#F37920" stroke="#F37920" d="M268.5,70.8h-3.6V17h-14.8v-3.4h33.2V17h-14.8V70.8z"/>
	<path fill="#F37920" stroke="#F37920" d="M289.4,52l-7.7,18.8H278l24-59.1l23.9,59.1h-3.7L314.5,52H289.4z M302,21l-11.2,27.6h22.4
		L302,21z"/>
</g>
<g>
	<path fill="#020202" d="M338.4,41.1h4.2l11,25.4l11-25.4h4v30.3h-2.8V44.7h-0.1l-11.6,26.7H353l-11.7-26.7h-0.1v26.7h-2.8V41.1z"/>
	<path fill="#020202" d="M386,41.1h2.9l12.8,30.3h-3.2l-3.3-8h-16l-3.4,8h-3L386,41.1z M387.4,44.2l-7.1,16.6h13.9L387.4,44.2z"/>
	<path fill="#020202" d="M431.1,69.5c-1.8,1-3.6,1.7-5.5,2.1c-1.9,0.4-3.8,0.6-5.8,0.6c-2.3,0-4.4-0.4-6.4-1.2
		c-1.9-0.8-3.6-1.9-4.9-3.3c-1.4-1.4-2.4-3.1-3.2-5.1c-0.8-2-1.2-4.1-1.2-6.4c0-2.3,0.4-4.4,1.2-6.4c0.8-1.9,1.8-3.6,3.2-5
		c1.4-1.4,3-2.5,4.9-3.3c1.9-0.8,4-1.2,6.4-1.2c4.5,0,8.1,1.4,10.9,4.2l-2.1,2.1c-0.5-0.5-1-1-1.7-1.5c-0.7-0.5-1.4-0.9-2.2-1.2
		s-1.6-0.6-2.5-0.8c-0.9-0.2-1.7-0.3-2.5-0.3c-2,0-3.7,0.3-5.3,1c-1.6,0.7-2.9,1.6-4,2.8c-1.1,1.2-2,2.6-2.6,4.2
		c-0.6,1.6-0.9,3.4-0.9,5.3s0.3,3.6,0.9,5.3c0.6,1.6,1.5,3,2.6,4.2c1.1,1.2,2.5,2.1,4,2.8c1.6,0.7,3.4,1,5.3,1
		c1.6,0,3.2-0.1,4.6-0.4c1.4-0.3,2.7-0.7,3.9-1.4v-10H421V55h10.1V69.5z"/>
	<path fill="#020202" d="M448.6,41.1h2.9l12.8,30.3h-3.2l-3.3-8h-16l-3.4,8h-3L448.6,41.1z M450,44.2l-7.1,16.6h13.9L450,44.2z"/>
	<path fill="#020202" d="M465.5,69.2l17.7-25.5h-17.5v-2.6h21.1v2.3L469,68.9h18.3v2.6h-21.8V69.2z"/>
	<path fill="#020202" d="M492.5,41.1h2.8v30.3h-2.8V41.1z"/>
	<path fill="#020202" d="M503.6,41.1h3.6l18.4,26.5h0.1V41.1h2.8v30.3H525l-18.4-26.5h-0.1v26.5h-2.8V41.1H503.6z"/>
	<path fill="#020202" d="M536.9,41.1h18.5v2.6h-15.7v10.8h14.7V57h-14.7v11.8h16.4v2.6h-19.2V41.1z"/>
</g>
<g>
	<path fill="#F37920" d="M407.3,19.6c0.2,0,0.4,0.1,0.6,0.2c0.2,0.1,0.2,0.3,0.2,0.5c0,0.2-0.1,0.4-0.2,0.5
		c-0.2,0.1-0.3,0.2-0.6,0.2c-0.2,0-0.4-0.1-0.6-0.2c-0.2-0.1-0.2-0.3-0.2-0.5c0-0.2,0.1-0.4,0.2-0.5C406.9,19.7,407,19.6,407.3,19.6
		z M407.7,31.6h-0.9v-8.5h0.9V31.6z"/>
	<path fill="#F37920" d="M411.8,31.6H411V16.5h0.9L411.8,31.6L411.8,31.6z"/>
	<path fill="#F37920" d="M415.6,31.6h-0.9V16.5h0.9V31.6z"/>
	<path fill="#F37920" d="M424.8,23.2v5.1c0,0.4,0,0.9-0.1,1.3c0,0.4-0.2,0.8-0.5,1.2c-0.3,0.4-0.7,0.7-1.2,0.9
		c-0.5,0.2-1,0.3-1.5,0.3s-1-0.1-1.5-0.3c-0.5-0.2-0.9-0.5-1.2-0.9c-0.3-0.4-0.4-0.7-0.5-1.2c0-0.4-0.1-0.8-0.1-1.3v-5.1h0.9V28
		c0,0.4,0,0.8,0.1,1.2c0,0.4,0.1,0.7,0.3,1c0.2,0.3,0.4,0.5,0.7,0.7c0.3,0.2,0.7,0.3,1.3,0.3c0.6,0,1-0.1,1.3-0.3
		c0.3-0.2,0.5-0.4,0.7-0.7c0.2-0.3,0.3-0.6,0.3-1c0-0.4,0.1-0.8,0.1-1.2v-4.8H424.8z"/>
	<path fill="#F37920" d="M428.4,24.2L428.4,24.2c0.2-0.4,0.5-0.7,0.9-0.9c0.4-0.2,0.8-0.3,1.3-0.3c0.6,0,1.1,0.1,1.5,0.4
		c0.4,0.3,0.8,0.6,1,1.1c0.2-0.5,0.6-0.9,1-1.2c0.5-0.3,1-0.4,1.5-0.4s1,0.1,1.4,0.3c0.3,0.2,0.6,0.4,0.8,0.7
		c0.2,0.3,0.3,0.7,0.4,1.1c0.1,0.4,0.1,0.8,0.1,1.3v5.3h-0.9v-5.4c0-0.3,0-0.6-0.1-0.9c-0.1-0.3-0.1-0.6-0.3-0.8
		c-0.1-0.2-0.3-0.4-0.6-0.5c-0.2-0.1-0.6-0.2-1-0.2c-0.5,0-0.8,0.1-1.1,0.3c-0.3,0.2-0.5,0.4-0.7,0.7c-0.2,0.3-0.3,0.6-0.4,1
		c-0.1,0.4-0.1,0.7-0.1,1.1v4.9h-0.9v-5.2c0-0.3,0-0.7-0.1-1c0-0.3-0.1-0.6-0.3-0.9c-0.1-0.3-0.3-0.5-0.6-0.6
		c-0.3-0.2-0.6-0.2-1-0.2c-0.5,0-0.8,0.1-1.1,0.3c-0.3,0.2-0.5,0.5-0.7,0.8c-0.2,0.3-0.3,0.7-0.3,1c-0.1,0.4-0.1,0.7-0.1,1.1v4.7
		h-0.9v-8.5h0.9v0.9H428.4z"/>
	<path fill="#F37920" d="M442.2,19.6c0.2,0,0.4,0.1,0.6,0.2c0.2,0.1,0.2,0.3,0.2,0.5c0,0.2-0.1,0.4-0.2,0.5
		c-0.2,0.1-0.3,0.2-0.6,0.2c-0.2,0-0.4-0.1-0.6-0.2c-0.2-0.1-0.2-0.3-0.2-0.5c0-0.2,0.1-0.4,0.2-0.5
		C441.8,19.7,441.9,19.6,442.2,19.6z M442.6,31.6h-0.9v-8.5h0.9V31.6z"/>
	<path fill="#F37920" d="M446.7,24.5L446.7,24.5c0.3-0.5,0.6-0.8,1.1-1.1c0.5-0.3,1-0.4,1.5-0.4s1,0.1,1.4,0.2
		c0.4,0.2,0.7,0.4,0.9,0.7c0.2,0.3,0.4,0.7,0.5,1.1c0.1,0.4,0.1,0.9,0.1,1.5v5.1h-0.9v-5.1c0-0.4,0-0.7-0.1-1.1
		c-0.1-0.4-0.1-0.6-0.3-0.9c-0.2-0.3-0.4-0.4-0.6-0.6c-0.3-0.1-0.7-0.2-1.1-0.2c-0.6,0-1,0.1-1.3,0.3c-0.3,0.2-0.6,0.5-0.8,0.9
		c-0.2,0.4-0.3,0.8-0.4,1.2c-0.1,0.4-0.1,0.9-0.1,1.3v4.2h-0.9v-8.5h0.9v1.4H446.7z"/>
	<path fill="#F37920" d="M462.9,31.6H462v-1.5l0,0c-0.2,0.3-0.4,0.5-0.6,0.7c-0.2,0.2-0.5,0.4-0.8,0.5c-0.3,0.1-0.6,0.3-0.9,0.3
		c-0.3,0.1-0.7,0.1-1,0.1c-0.7,0-1.3-0.1-1.8-0.3c-0.5-0.2-1-0.6-1.4-1s-0.7-0.9-0.9-1.4c-0.2-0.5-0.3-1.1-0.3-1.8
		c0-0.7,0.1-1.2,0.3-1.7c0.2-0.5,0.5-1,0.9-1.4s0.8-0.7,1.4-0.9c0.5-0.2,1.1-0.3,1.8-0.3s1.3,0.1,1.9,0.4c0.6,0.3,1.1,0.7,1.5,1.2
		l0,0V23h0.9L462.9,31.6L462.9,31.6z M458.6,23.7c-0.5,0-1,0.1-1.4,0.3c-0.4,0.2-0.8,0.5-1.1,0.8c-0.3,0.3-0.5,0.7-0.7,1.2
		c-0.2,0.5-0.2,0.9-0.2,1.3c0,0.5,0.1,1,0.2,1.4c0.1,0.4,0.4,0.8,0.7,1.2c0.3,0.3,0.7,0.6,1.1,0.8c0.4,0.2,0.9,0.3,1.4,0.3
		c0.6,0,1.1-0.1,1.5-0.3c0.4-0.2,0.8-0.5,1.1-0.8c0.3-0.3,0.5-0.8,0.7-1.2c0.2-0.5,0.2-0.9,0.2-1.5c0-0.5-0.1-0.9-0.2-1.4
		c-0.2-0.4-0.4-0.8-0.7-1.1c-0.3-0.3-0.7-0.6-1.1-0.7C459.6,23.8,459.1,23.7,458.6,23.7z"/>
	<path fill="#F37920" d="M466.8,31.6H466v-7.7h-1v-0.8h1v-3h0.9v3h1.5v0.8h-1.5v7.7H466.8z"/>
	<path fill="#F37920" d="M470.6,19.6c0.2,0,0.4,0.1,0.6,0.2c0.2,0.1,0.2,0.3,0.2,0.5c0,0.2-0.1,0.4-0.2,0.5
		c-0.2,0.1-0.3,0.2-0.6,0.2c-0.2,0-0.4-0.1-0.6-0.2c-0.2-0.1-0.2-0.3-0.2-0.5c0-0.2,0.1-0.4,0.2-0.5
		C470.2,19.7,470.4,19.6,470.6,19.6z M471,31.6h-0.9v-8.5h0.9V31.6z"/>
	<path fill="#F37920" d="M475.2,24.5L475.2,24.5c0.3-0.5,0.6-0.8,1.1-1.1c0.5-0.3,1-0.4,1.5-0.4s1,0.1,1.4,0.2
		c0.4,0.2,0.7,0.4,0.9,0.7c0.2,0.3,0.4,0.7,0.5,1.1c0.1,0.4,0.1,0.9,0.1,1.5v5.1h-0.9v-5.1c0-0.4,0-0.7-0.1-1.1
		c-0.1-0.4-0.1-0.6-0.3-0.9c-0.2-0.3-0.4-0.4-0.6-0.6c-0.3-0.1-0.7-0.2-1.1-0.2c-0.6,0-1,0.1-1.3,0.3c-0.3,0.2-0.6,0.5-0.8,0.9
		c-0.2,0.4-0.3,0.8-0.4,1.2c-0.1,0.4-0.1,0.9-0.1,1.3v4.2h-0.9v-8.5h0.9v1.4H475.2z"/>
	<path fill="#F37920" d="M491.6,31.2c0,0.7,0,1.3-0.1,1.9s-0.3,1.2-0.8,1.7c-0.4,0.6-0.9,1-1.5,1.2c-0.6,0.3-1.3,0.4-2,0.4
		c-0.6,0-1.1-0.1-1.6-0.2c-0.5-0.2-1-0.4-1.4-0.7c-0.4-0.3-0.7-0.7-0.9-1.1s-0.4-1-0.4-1.5h0.9c0,0.4,0.1,0.8,0.3,1.2
		c0.2,0.4,0.4,0.7,0.8,0.9c0.3,0.2,0.7,0.4,1.1,0.6c0.4,0.1,0.8,0.2,1.3,0.2c0.6,0,1.1-0.1,1.6-0.3s0.9-0.5,1.2-1
		c0.3-0.5,0.6-1,0.6-1.5s0.1-1.1,0.1-1.7v-1l0,0c-0.4,0.5-0.9,0.9-1.5,1.2c-0.6,0.3-1.3,0.4-1.9,0.4c-0.6,0-1.2-0.1-1.7-0.4
		c-0.5-0.2-1-0.6-1.4-1c-0.4-0.4-0.7-0.9-0.9-1.4c-0.2-0.5-0.3-1.1-0.3-1.7s0.1-1.2,0.3-1.7c0.2-0.5,0.5-1,0.9-1.4
		c0.4-0.4,0.8-0.7,1.4-0.9c0.5-0.2,1.1-0.3,1.8-0.3s1.4,0.1,1.9,0.4s1,0.7,1.4,1.2l0,0v-1.5h0.9v8H491.6z M487.2,23.7
		c-0.5,0-1,0.1-1.4,0.3c-0.4,0.2-0.8,0.5-1.1,0.8c-0.3,0.3-0.5,0.7-0.7,1.2c-0.2,0.4-0.2,0.9-0.2,1.3c0,0.5,0.1,1,0.2,1.4
		c0.1,0.4,0.4,0.8,0.7,1.2c0.3,0.3,0.7,0.6,1.1,0.8c0.4,0.2,0.9,0.3,1.4,0.3c0.6,0,1.1-0.1,1.5-0.3c0.4-0.2,0.8-0.5,1.1-0.8
		c0.3-0.3,0.5-0.8,0.7-1.2c0.2-0.4,0.2-0.9,0.2-1.5c0-0.5-0.1-0.9-0.2-1.4c-0.2-0.4-0.4-0.8-0.7-1.1c-0.3-0.3-0.7-0.6-1.1-0.7
		C488.2,23.8,487.8,23.7,487.2,23.7z"/>
	<path fill="#F37920" d="M504.1,24.7c-0.1-0.3-0.3-0.5-0.6-0.7s-0.6-0.3-0.9-0.3c-0.2,0-0.4,0-0.6,0.1c-0.2,0.1-0.3,0.2-0.5,0.3
		c-0.1,0.1-0.3,0.3-0.3,0.4c-0.1,0.2-0.1,0.3-0.1,0.5c0,0.3,0.1,0.6,0.3,0.8c0.2,0.2,0.5,0.4,0.8,0.5c0.3,0.1,0.7,0.3,1,0.4
		c0.4,0.1,0.7,0.3,1,0.5c0.3,0.2,0.6,0.4,0.8,0.7c0.2,0.3,0.3,0.7,0.3,1.2c0,0.4-0.1,0.7-0.2,1.1c-0.1,0.3-0.3,0.6-0.6,0.8
		s-0.6,0.4-0.9,0.5c-0.3,0.1-0.7,0.2-1.1,0.2c-0.7,0-1.4-0.2-1.9-0.6s-0.9-0.9-1.1-1.6l0.8-0.3c0.2,0.5,0.4,0.9,0.8,1.2
		c0.4,0.3,0.8,0.5,1.4,0.5c0.6,0,1-0.2,1.4-0.6c0.4-0.4,0.6-0.8,0.6-1.4c0-0.3,0-0.5-0.1-0.7c-0.1-0.2-0.2-0.3-0.4-0.5
		c-0.2-0.1-0.3-0.2-0.6-0.3c-0.2-0.1-0.4-0.2-0.6-0.2c-0.3-0.1-0.6-0.2-0.9-0.3c-0.3-0.1-0.6-0.3-0.8-0.4c-0.2-0.2-0.4-0.4-0.6-0.6
		c-0.2-0.3-0.2-0.6-0.2-0.9s0.1-0.6,0.2-0.9c0.1-0.3,0.3-0.5,0.5-0.7c0.2-0.2,0.5-0.3,0.8-0.4s0.6-0.2,0.9-0.2
		c0.4,0,0.9,0.1,1.3,0.4c0.4,0.3,0.7,0.6,0.9,1L504.1,24.7z"/>
	<path fill="#F37920" d="M514.3,25.1c-0.4-0.4-0.9-0.8-1.4-1c-0.5-0.2-1.1-0.4-1.7-0.4c-0.5,0-1,0.1-1.5,0.3
		c-0.4,0.2-0.8,0.5-1.2,0.8c-0.3,0.3-0.6,0.7-0.8,1.2c-0.2,0.4-0.3,0.9-0.3,1.4s0.1,0.9,0.3,1.4c0.2,0.4,0.4,0.8,0.8,1.2
		c0.3,0.3,0.7,0.6,1.1,0.8c0.4,0.2,0.9,0.3,1.4,0.3c0.6,0,1.2-0.1,1.8-0.4c0.6-0.3,1-0.6,1.5-1.1v1.1c-0.4,0.4-0.9,0.7-1.5,0.9
		c-0.6,0.2-1.1,0.3-1.7,0.3c-0.6,0-1.2-0.1-1.8-0.3c-0.6-0.2-1-0.5-1.4-0.9c-0.4-0.4-0.7-0.9-0.9-1.4s-0.3-1.1-0.3-1.7
		s0.1-1.2,0.3-1.7s0.5-1,1-1.4c0.4-0.4,0.9-0.7,1.4-0.9c0.6-0.2,1.2-0.3,1.8-0.3c0.6,0,1.1,0.1,1.6,0.3c0.5,0.2,1,0.4,1.4,0.8
		L514.3,25.1L514.3,25.1z"/>
	<path fill="#F37920" d="M517.4,19.6c0.2,0,0.4,0.1,0.6,0.2c0.2,0.1,0.2,0.3,0.2,0.5c0,0.2-0.1,0.4-0.2,0.5
		c-0.2,0.1-0.3,0.2-0.6,0.2c-0.2,0-0.4-0.1-0.6-0.2c-0.2-0.1-0.2-0.3-0.2-0.5c0-0.2,0.1-0.4,0.2-0.5C517,19.7,517.2,19.6,517.4,19.6
		z M517.8,31.6H517v-8.5h0.9v8.5H517.8z"/>
	<path fill="#F37920" d="M521.1,27.5c0,0.5,0.1,1,0.2,1.5c0.2,0.4,0.4,0.8,0.7,1.1c0.3,0.3,0.7,0.6,1.1,0.7c0.4,0.2,0.9,0.3,1.4,0.3
		c0.7,0,1.3-0.2,1.8-0.5c0.5-0.3,1-0.8,1.3-1.4l0.7,0.4c-0.4,0.7-0.9,1.3-1.6,1.7c-0.7,0.4-1.4,0.6-2.3,0.6c-0.6,0-1.2-0.1-1.8-0.4
		c-0.5-0.2-1-0.6-1.4-1c-0.4-0.4-0.7-0.9-0.9-1.4S520,28,520,27.4s0.1-1.1,0.3-1.7c0.2-0.5,0.5-1,0.9-1.4c0.4-0.4,0.8-0.7,1.3-1
		c0.5-0.3,1.1-0.4,1.8-0.4s1.3,0.1,1.8,0.4c0.5,0.2,1,0.6,1.3,1c0.3,0.4,0.6,0.9,0.8,1.4s0.3,1.1,0.3,1.7h-7.4V27.5z M527.9,26.7
		c-0.1-0.4-0.2-0.8-0.4-1.1c-0.2-0.4-0.4-0.7-0.7-0.9c-0.3-0.3-0.6-0.5-1-0.7c-0.4-0.2-0.8-0.2-1.3-0.2c-0.4,0-0.9,0.1-1.3,0.2
		c-0.4,0.2-0.8,0.4-1.1,0.6c-0.3,0.3-0.6,0.6-0.8,0.9s-0.3,0.7-0.4,1.1h7V26.7z"/>
	<path fill="#F37920" d="M531.7,24.5L531.7,24.5c0.3-0.5,0.6-0.8,1.1-1.1c0.5-0.3,1-0.4,1.5-0.4s1,0.1,1.4,0.2
		c0.4,0.2,0.7,0.4,0.9,0.7c0.2,0.3,0.4,0.7,0.5,1.1c0.1,0.4,0.1,0.9,0.1,1.5v5.1h-0.9v-5.1c0-0.4,0-0.7-0.1-1.1
		c-0.1-0.4-0.1-0.6-0.3-0.9c-0.2-0.3-0.4-0.4-0.6-0.6c-0.3-0.1-0.7-0.2-1.1-0.2c-0.6,0-1,0.1-1.3,0.3s-0.6,0.5-0.8,0.9
		c-0.2,0.4-0.3,0.8-0.4,1.2s-0.1,0.9-0.1,1.3v4.2h-0.9v-8.5h0.9L531.7,24.5L531.7,24.5z"/>
	<path fill="#F37920" d="M546.9,25.1c-0.4-0.4-0.9-0.8-1.4-1c-0.5-0.2-1.1-0.4-1.7-0.4c-0.5,0-1,0.1-1.5,0.3
		c-0.4,0.2-0.8,0.5-1.2,0.8c-0.3,0.3-0.6,0.7-0.8,1.2c-0.2,0.4-0.3,0.9-0.3,1.4s0.1,0.9,0.3,1.4c0.2,0.4,0.4,0.8,0.8,1.2
		c0.3,0.3,0.7,0.6,1.1,0.8c0.4,0.2,0.9,0.3,1.4,0.3c0.6,0,1.2-0.1,1.8-0.4c0.6-0.3,1-0.6,1.5-1.1v1.1c-0.4,0.4-0.9,0.7-1.5,0.9
		c-0.6,0.2-1.1,0.3-1.7,0.3c-0.6,0-1.2-0.1-1.8-0.3c-0.6-0.2-1-0.5-1.4-0.9c-0.4-0.4-0.7-0.9-0.9-1.4s-0.3-1.1-0.3-1.7
		s0.1-1.2,0.3-1.7s0.5-1,1-1.4c0.4-0.4,0.9-0.7,1.4-0.9c0.6-0.2,1.2-0.3,1.8-0.3s1.1,0.1,1.6,0.3c0.5,0.2,1,0.4,1.4,0.8v0.7H546.9z"
		/>
	<path fill="#F37920" d="M549.3,27.5c0,0.5,0.1,1,0.2,1.5c0.2,0.4,0.4,0.8,0.7,1.1c0.3,0.3,0.7,0.6,1.1,0.7c0.4,0.2,0.9,0.3,1.4,0.3
		c0.7,0,1.3-0.2,1.8-0.5c0.5-0.3,1-0.8,1.3-1.4l0.7,0.4c-0.4,0.7-0.9,1.3-1.6,1.7c-0.7,0.4-1.4,0.6-2.3,0.6c-0.6,0-1.2-0.1-1.8-0.4
		c-0.5-0.2-1-0.6-1.4-1c-0.4-0.4-0.7-0.9-0.9-1.4s-0.3-1.1-0.3-1.7s0.1-1.1,0.3-1.7c0.2-0.5,0.5-1,0.9-1.4c0.4-0.4,0.8-0.7,1.3-1
		c0.5-0.3,1.1-0.4,1.8-0.4s1.3,0.1,1.8,0.4c0.5,0.2,1,0.6,1.3,1c0.3,0.4,0.6,0.9,0.8,1.4c0.2,0.5,0.3,1.1,0.3,1.7h-7.4V27.5z
		 M556.1,26.7c-0.1-0.4-0.2-0.8-0.4-1.1c-0.2-0.4-0.4-0.7-0.7-0.9c-0.3-0.3-0.6-0.5-1-0.7s-0.8-0.2-1.3-0.2c-0.4,0-0.9,0.1-1.3,0.2
		c-0.4,0.2-0.8,0.4-1.1,0.6c-0.3,0.3-0.6,0.6-0.8,0.9s-0.3,0.7-0.4,1.1h7V26.7z"/>
</g>
</svg>
